# xmcd
# Copyright (C) 1995-1998 Ti Kan
#
# Track frame offsets:
#       150
#       13830
#       24902
#       35507
#       48042
#
# Disc length: 854 seconds
#
# Revision: 0
# Processed by: cddbd v1.5.2PL0 Copyright (c) Steve Scherf et al.
# Submitted via: CD-Import v1.0
#
DISCID=2f035405
DTITLE=Zoo - I Ghost Town Ep
DYEAR=1900
DGENRE=
TTITLE0=Ghost Town
TTITLE1=Favorite Shirt
TTITLE2=Here In My Layer
TTITLE3=Thin Line
TTITLE4=I Can't Handle It
EXTD=
EXTT0=
EXTT1=
EXTT2=
EXTT3=
EXTT4=
PLAYORDER=
